# xmcd CD database file
#
# Track frame offsets:
#	150
#	22110
#	31380
#	39552
#	48455
#	57760
#	67422
#	73612
#	79497
#	88497
#	97707
#	107735
#	116660
#	125032
#	136745
#	146907
#	154400
#	161785
#	171367
#	182487
#	192247
#	195522
#	200170
#	207487
#	219675
#	224447
#	227170
#	231752
#	236422
#	242035
#	254220
#	263832
#	280457
#	298185
#	302810
#	306845
#	318527
#
# Disc length: 4504 seconds
#
# Revision: 0
# Processed by: cddbd v1.5PL3 Copyright (c) Steve Scherf et al.
# Submitted via: CDex 1.50
#
DISCID=58119625
DTITLE=Alessandro Alessandroni - Ennio Morricone - ペイネ 愛の世界旅行
DYEAR=1974
DGENRE=Soundtrack
TTITLE0=愛の世界旅行
TTITLE1=恋とビールと
TTITLE2=大佐のシルタキ
TTITLE3=ブリューゲルのスケート
TTITLE4=宮廷への招待
TTITLE5=従男爵
TTITLE6=ナポリのレストラン
TTITLE7=ひまわりの花
TTITLE8=チロルより愛をこめて
TTITLE9=遥か東洋より
TTITLE10=ボリショイの夜
TTITLE11=たそがれのローマ
TTITLE12=モンマルトルにて
TTITLE13=キリストの生誕
TTITLE14=ブラジルのサンバ
TTITLE15=セヴィリアの聖金曜日
TTITLE16=幸せを求めて
TTITLE17=メイド・イン・ＵＳＡ
TTITLE18=セント・ピータース寺院
TTITLE19=赤の広場
TTITLE20=遥か東洋より（ムービー・ヴァージョン）
TTITLE21=メイド・イン・ＵＳＡ（オルタネイト・ヴァージョン１）
TTITLE22=宮廷への招待（オルタネイト・ヴァージョン）
TTITLE23=キリストの生誕（オルタネイト・ヴァージョン）
TTITLE24=ひまわりの花（オルタネイト・ヴァージョン）
TTITLE25=メイド・イン・ＵＳＡ（オルタネイト・ヴァージョン - マカロニ・ウエスタン）
TTITLE26=メイド・イン・ＵＳＡ（オルタネイト・ヴァージョン２）
TTITLE27=メイド・イン・ＵＳＡ（オルタネイト・ヴァージョン３）
TTITLE28=ブリューゲルのスケート（ショート・ヴァージョン）
TTITLE29=メイド・イン・ＵＳＡ（オルタネイト・ヴァージョン４）
TTITLE30=従男爵（オルタネイト・ヴァージョン）
TTITLE31=愛の世界旅行（オリジナル・メイン・タイトル）
TTITLE32=愛の世界旅行１
TTITLE33=愛の世界旅行２
TTITLE34=愛の世界旅行３
TTITLE35=愛の世界旅行４
TTITLE36=愛の世界旅行５
EXTD=YEAR: 1974
EXTT0=
EXTT1=
EXTT2=
EXTT3=
EXTT4=
EXTT5=
EXTT6=
EXTT7=
EXTT8=
EXTT9=
EXTT10=
EXTT11=
EXTT12=
EXTT13=
EXTT14=
EXTT15=
EXTT16=
EXTT17=
EXTT18=
EXTT19=
EXTT20=
EXTT21=
EXTT22=
EXTT23=
EXTT24=
EXTT25=
EXTT26=
EXTT27=
EXTT28=
EXTT29=
EXTT30=
EXTT31=
EXTT32=
EXTT33=
EXTT34=
EXTT35=
EXTT36=
PLAYORDER=
